<svg width="1280" height="1024" viewBox="0 0 1280 1024" fill="none" xmlns="http://www.w3.org/2000/svg">
<path d="M904.5 216.5L989.28 373L906.675 337.761L841.692 373L904.5 216.5Z" fill="#E0E0E0"/>
<path d="M1084 290.409L910.5 211.5L1069.68 161.567L1043.25 218.83L1084 290.409Z" fill="#E0E0E0"/>
<path d="M915.486 101L906.5 204L1002.5 116.417L946.325 124.126L915.486 101Z" fill="#E0E0E0"/>
<path d="M897 206.5L849.402 129.632L836.185 165.972L792.129 190.198L897 206.5Z" fill="#E0E0E0"/>
<path d="M769 234.247L898.5 214L794.332 321.243L797.636 260.676L769 234.247Z" fill="#E0E0E0"/>
<path d="M1212.5 942.5L1297.28 1099L1214.67 1063.76L1149.69 1099L1212.5 942.5Z" fill="#E0E0E0"/>
<path d="M1392 1016.41L1218.5 937.5L1377.68 887.567L1351.25 944.83L1392 1016.41Z" fill="#E0E0E0"/>
<path d="M1223.49 827L1214.5 930L1310.5 842.417L1254.33 850.126L1223.49 827Z" fill="#E0E0E0"/>
<path d="M1205 932.5L1157.4 855.632L1144.19 891.972L1100.13 916.198L1205 932.5Z" fill="#E0E0E0"/>
<path d="M1077 960.247L1206.5 940L1102.33 1047.24L1105.64 986.676L1077 960.247Z" fill="#E0E0E0"/>
<path d="M1294.5 454.5L1379.28 611L1296.67 575.761L1231.69 611L1294.5 454.5Z" fill="#E0E0E0"/>
<path d="M1474 528.409L1300.5 449.5L1459.68 399.567L1433.25 456.83L1474 528.409Z" fill="#E0E0E0"/>
<path d="M1305.49 339L1296.5 442L1392.5 354.417L1336.33 362.126L1305.49 339Z" fill="#E0E0E0"/>
<path d="M1287 444.5L1239.4 367.632L1226.19 403.972L1182.13 428.198L1287 444.5Z" fill="#E0E0E0"/>
<path d="M1159 472.247L1288.5 452L1184.33 559.243L1187.64 498.676L1159 472.247Z" fill="#E0E0E0"/>
<path d="M342.519 329.533L292.882 500.46L258.865 417.344L187.866 396.76L342.519 329.533Z" fill="#E0E0E0"/>
<path d="M418.312 508.246L350.302 330.191L498.653 406.508L439.609 428.68L418.312 508.246Z" fill="#E0E0E0"/>
<path d="M431.491 255.068L352.725 322.044L482.571 327.175L437.186 293.192L431.491 255.068Z" fill="#E0E0E0"/>
<path d="M344.209 317.148L364.351 229.008L329.413 245.579L281.042 231.863L344.209 317.148Z" fill="#E0E0E0"/>
<path d="M233.635 246.954L340.007 323.538L190.533 326.655L235.441 285.88L233.635 246.954Z" fill="#E0E0E0"/>
<path d="M323.346 962.263L167.423 1247.89L139.414 1086.1L20.7578 1021.4L323.346 962.263Z" fill="#E0E0E0"/>
<path d="M388.3 1311.18L336.982 966.503L571.799 1161.17L457.651 1177.51L388.3 1311.18Z" fill="#E0E0E0"/>
<path d="M511.515 864.345L344.517 952.911L574.322 1013.2L506.672 934.653L511.515 864.345Z" fill="#E0E0E0"/>
<path d="M331.239 940.816L401.905 791.382L333.002 807.212L252.041 763.676L331.239 940.816Z" fill="#E0E0E0"/>
<path d="M161.457 771.954L321.22 950.571L53.1228 897.282L149.355 842.165L161.457 771.954Z" fill="#E0E0E0"/>
<path d="M94.862 36.9101L-227.018 -10.9387L-84.8154 -93.0271L-65.0006 -226.719L94.862 36.9101Z" fill="#E0E0E0"/>
<path d="M-210.246 218.213L95.5856 51.1713L-6.15458 338.718L-60.8583 237.209L-210.246 218.213Z" fill="#E0E0E0"/>
<path d="M251.669 179.765L110.942 53.5563L133.611 290.054L184.004 199.467L251.669 179.765Z" fill="#E0E0E0"/>
<path d="M117.716 36.9224L282.353 51.7157L243.731 -7.50098L256.673 -98.5084L117.716 36.9224Z" fill="#E0E0E0"/>
<path d="M217.663 -180.68L105.104 30.8822L62.6615 -239.145L147.586 -167.825L217.663 -180.68Z" fill="#E0E0E0"/>
</svg>
