<svg width="176" height="55" viewBox="0 0 176 55" fill="none" xmlns="http://www.w3.org/2000/svg">
<path d="M70.6572 18.6193V28.0893C70.6514 28.174 70.6152 28.2537 70.5552 28.3137C70.4952 28.3737 70.4155 28.4099 70.3309 28.4156H67.1954C67.1108 28.4099 67.0311 28.3737 66.9711 28.3137C66.9111 28.2537 66.8749 28.174 66.8691 28.0893L66.9995 16.9212L66.8691 5.88438C66.8755 5.80013 66.912 5.72098 66.9719 5.6614C67.0318 5.60182 67.1112 5.56579 67.1954 5.5599H71.3435C71.4445 5.55805 71.544 5.58468 71.6305 5.63675C71.7171 5.68882 71.7872 5.76422 71.8329 5.85431L82.4132 23.3543L82.3803 22.1138L82.25 16.0727L82.2172 5.88438C82.2236 5.80013 82.26 5.72098 82.3199 5.6614C82.3798 5.60182 82.4592 5.56579 82.5435 5.5599H85.7108C85.7955 5.56587 85.8752 5.60229 85.9352 5.66243C85.9952 5.72257 86.0314 5.80238 86.0371 5.88712L85.874 16.924L86.0052 28.0921C85.9992 28.1768 85.9628 28.2565 85.9027 28.3165C85.8425 28.3764 85.7627 28.4126 85.678 28.4184H81.3677C81.2668 28.4204 81.1673 28.394 81.0808 28.3421C80.9942 28.2901 80.924 28.2149 80.8783 28.1249L70.4612 10.8801L70.5268 12.6438L70.6572 18.6193Z" fill="#3D6CAF"/>
<path d="M105.366 28.4157C105.313 28.4158 105.261 28.4056 105.213 28.3856C105.165 28.3656 105.121 28.3363 105.084 28.2993C105.047 28.2623 105.017 28.2183 104.997 28.1699C104.977 28.1216 104.967 28.0697 104.967 28.0174L105.058 24.7407C103.509 27.3083 101.073 28.8586 97.7531 28.8586C91.598 28.8586 88.3213 23.6779 88.3213 17.0799C88.3213 10.4818 91.8195 5.16895 97.8415 5.16895C101.073 5.16895 103.509 6.5416 105.015 9.06543L104.924 6.01022C104.923 5.95785 104.933 5.90594 104.953 5.85751C104.973 5.80908 105.003 5.76507 105.04 5.72804C105.077 5.691 105.121 5.66167 105.169 5.64174C105.218 5.62181 105.269 5.61167 105.322 5.61191H108.603C108.655 5.61167 108.707 5.62181 108.756 5.64174C108.804 5.66167 108.848 5.691 108.885 5.72804C108.922 5.76507 108.952 5.80908 108.972 5.85751C108.991 5.90594 109.002 5.95785 109.001 6.01022L108.869 16.8146L109.001 28.0174C109.002 28.0697 108.991 28.1216 108.972 28.1701C108.952 28.2185 108.922 28.2625 108.885 28.2996C108.848 28.3366 108.804 28.3659 108.756 28.3858C108.707 28.4058 108.655 28.4159 108.603 28.4157H105.366ZM98.7684 25.8918C102.71 25.8918 105.1 22.9697 105.149 17.2129C105.192 11.7223 103.112 8.44564 99.3919 8.13574H98.4622C94.3442 8.31256 92.4402 11.8107 92.4402 16.77C92.4365 22.2169 94.4718 25.8918 98.7684 25.8918Z" fill="#3D6CAF"/>
<path d="M124.051 28.1057C124 28.2051 123.925 28.2899 123.832 28.3519C123.739 28.4139 123.631 28.4512 123.52 28.4603H119.446C119.334 28.451 119.227 28.4136 119.134 28.3516C119.041 28.2896 118.966 28.205 118.914 28.1057L110.768 5.96546C110.757 5.92436 110.756 5.88143 110.764 5.83982C110.773 5.79821 110.79 5.75899 110.815 5.72505C110.841 5.69111 110.874 5.66331 110.911 5.64372C110.949 5.62412 110.99 5.61322 111.033 5.61182H114.619C114.737 5.62096 114.849 5.66327 114.943 5.7338C115.037 5.80432 115.109 5.90016 115.151 6.01012L121.571 25.0505L128.169 6.01012C128.211 5.90016 128.283 5.80432 128.377 5.7338C128.471 5.66327 128.583 5.62096 128.701 5.61182H131.8C132.021 5.61182 132.109 5.78864 132.065 5.96546L124.051 28.1057Z" fill="#3D6CAF"/>
<path d="M144.389 28.0903C144.383 28.1748 144.347 28.2543 144.287 28.3142C144.228 28.3741 144.148 28.4101 144.064 28.4157H140.584C140.499 28.4099 140.42 28.3737 140.36 28.3139C140.301 28.2541 140.265 28.1746 140.259 28.0903L140.389 20.6437L132.844 5.94369C132.822 5.91545 132.809 5.88145 132.806 5.84589C132.804 5.81034 132.811 5.77479 132.829 5.74366C132.846 5.71252 132.872 5.68716 132.904 5.67071C132.935 5.65426 132.971 5.64745 133.007 5.65111H136.877C136.973 5.65211 137.066 5.68009 137.147 5.73184C137.227 5.78359 137.292 5.85701 137.332 5.94369L142.505 17.0981L147.708 5.94369C147.749 5.85721 147.813 5.78396 147.894 5.73225C147.974 5.68054 148.068 5.65243 148.163 5.65111H151.675C151.711 5.64745 151.746 5.65426 151.778 5.67071C151.81 5.68716 151.836 5.71252 151.853 5.74366C151.871 5.77479 151.878 5.81034 151.876 5.84589C151.873 5.88145 151.86 5.91545 151.838 5.94369L144.26 20.6756L144.389 28.0903Z" fill="#3D6CAF"/>
<path d="M167.808 28.4157C167.756 28.4158 167.704 28.4056 167.655 28.3856C167.607 28.3656 167.563 28.3363 167.526 28.2993C167.489 28.2623 167.46 28.2183 167.44 28.1699C167.42 28.1216 167.409 28.0697 167.41 28.0174L167.501 24.7407C165.951 27.3083 163.515 28.8586 160.194 28.8586C154.039 28.8586 150.763 23.6779 150.763 17.0799C150.763 10.4818 154.263 5.16895 160.278 5.16895C163.51 5.16895 165.946 6.5416 167.451 9.06543L167.36 6.01022C167.36 5.95785 167.37 5.90594 167.39 5.85751C167.41 5.80908 167.439 5.76507 167.476 5.72804C167.514 5.691 167.558 5.66167 167.606 5.64174C167.654 5.62181 167.706 5.61167 167.759 5.61191H171.035C171.088 5.61167 171.14 5.62181 171.188 5.64174C171.236 5.66167 171.281 5.691 171.318 5.72804C171.355 5.76507 171.384 5.80908 171.404 5.85751C171.424 5.90594 171.434 5.95785 171.434 6.01022L171.307 16.8146L171.44 28.0174C171.44 28.0697 171.43 28.1216 171.41 28.1701C171.39 28.2185 171.361 28.2625 171.324 28.2996C171.287 28.3366 171.243 28.3659 171.194 28.3858C171.146 28.4058 171.094 28.4159 171.042 28.4157H167.808ZM161.211 25.8918C165.152 25.8918 167.543 22.9697 167.591 17.2129C167.635 11.7223 165.554 8.44564 161.834 8.13574H160.904C156.787 8.31256 154.882 11.8107 154.882 16.77C154.879 22.2169 156.916 25.8918 161.211 25.8918Z" fill="#3D6CAF"/>
<path d="M77.2394 47.1032H69.7818L68.3126 50.5549H65.4561L72.168 35.6379H74.896L81.629 50.5549H78.7315L77.2394 47.1032ZM76.3234 44.9348L73.5079 38.4097L70.7197 44.9348H76.3234Z" fill="#3D6CAF"/>
<path d="M82.6738 35.6379H89.1944C94.0315 35.6379 97.3346 38.6211 97.3346 43.0955C97.3346 47.5698 94.0315 50.553 89.1944 50.553H82.6738V35.6379ZM89.0668 48.216C92.3909 48.216 94.5428 46.1917 94.5428 43.1019C94.5428 40.012 92.3909 37.9877 89.0668 37.9877H85.4483V48.216H89.0668Z" fill="#3D6CAF"/>
<path d="M111.781 35.6379L105.282 50.553H102.555L96.0342 35.6379H99.042L104.006 47.1442L109.011 35.6379H111.781Z" fill="#3D6CAF"/>
<path d="M112.825 35.6379H115.596V50.5549H112.825V35.6379Z" fill="#3D6CAF"/>
<path d="M117.088 48.9781L118.047 46.8261C119.24 47.785 121.137 48.4667 122.969 48.4667C125.291 48.4667 126.272 47.6355 126.272 46.5281C126.272 43.3106 117.407 45.4197 117.407 39.8799C117.407 37.4718 119.321 35.4265 123.416 35.4265C125.206 35.4265 127.081 35.895 128.381 36.7472L127.508 38.8992C126.165 38.1117 124.695 37.7279 123.395 37.7279C121.094 37.7279 120.156 38.623 120.156 39.7514C120.156 42.9269 128.997 40.8597 128.997 46.3367C128.997 48.7229 127.058 50.7682 122.967 50.7682C120.646 50.7682 118.324 50.0436 117.088 48.9781Z" fill="#3D6CAF"/>
<path d="M129.404 43.0973C129.404 38.6868 132.814 35.4265 137.438 35.4265C142.062 35.4265 145.471 38.6649 145.471 43.0973C145.471 47.5298 142.062 50.7682 137.438 50.7682C132.814 50.7682 129.404 47.5079 129.404 43.0973ZM142.68 43.0973C142.68 40.0503 140.442 37.8555 137.438 37.8555C134.434 37.8555 132.196 40.0503 132.196 43.0973C132.196 46.1443 134.433 48.3391 137.438 48.3391C140.443 48.3391 142.68 46.1443 142.68 43.0973Z" fill="#3D6CAF"/>
<path d="M156.466 50.5549L153.419 46.1872C153.228 46.2046 153.036 46.2116 152.844 46.2081H149.477V50.5549H146.707V35.6379H152.844C156.763 35.6379 159.194 37.6431 159.194 40.9435C159.194 43.2021 158.043 44.8628 156.018 45.6521L159.449 50.553L156.466 50.5549ZM152.714 37.9831H149.475V43.9322H152.714C155.143 43.9322 156.4 42.8239 156.4 40.949C156.4 39.0741 155.145 37.9831 152.714 37.9831Z" fill="#3D6CAF"/>
<path d="M160.175 48.9781L161.134 46.8261C162.327 47.785 164.223 48.4667 166.056 48.4667C168.378 48.4667 169.358 47.6355 169.358 46.5281C169.358 43.3106 160.494 45.4197 160.494 39.8799C160.494 37.4718 162.408 35.4265 166.503 35.4265C168.292 35.4265 170.168 35.895 171.468 36.7472L170.594 38.8992C169.251 38.1117 167.781 37.7279 166.481 37.7279C164.18 37.7279 163.243 38.623 163.243 39.7514C163.243 42.9269 172.084 40.8597 172.084 46.3367C172.084 48.7229 170.144 50.7682 166.054 50.7682C163.732 50.7682 161.41 50.0436 160.175 48.9781Z" fill="#3D6CAF"/>
<path d="M53.7702 10.1655C51.0936 7.17528 47.0813 5.67046 41.7335 5.65102C39.0222 5.6419 36.5746 6.08943 34.3908 6.99359C32.2069 7.89776 30.0513 9.41838 27.924 11.5554L27.9431 5.97367L5.09648 5.89437L4.94336 50.4036H5.96784C6.31055 41.9435 15.2346 41.5625 18.8878 40.6437C22.6056 39.7113 27.4044 38.7151 27.4327 30.2731C27.4537 24.1937 25.4986 23.0389 22.3923 23.028C19.2861 23.017 15.9027 24.7597 15.8991 25.7751C15.8991 26.1123 16.0331 26.1807 16.1725 26.1816C16.3749 26.1816 16.6456 26.1151 16.9154 26.116C20.2878 26.1278 22.7815 28.9734 22.7706 32.2155C22.7569 36.0646 19.5714 39.2957 15.8572 39.2829C12.2113 39.2701 8.77513 36.4893 8.79063 32.0313C8.80703 27.0338 13.8893 22.256 24.8979 22.2942C34.2185 22.3261 40.6224 25.9957 40.5969 33.2217L40.5376 50.5276L45.1305 50.5431H46.0055L57.7022 50.5832L57.7989 22.5604C57.8134 17.2891 56.4706 13.1575 53.7702 10.1655Z" fill="#3D6CAF"/>
<path d="M26.9365 36.957C26.8016 36.957 25.8519 38.1693 24.43 39.2448C23.2114 40.1863 20.0322 41.3913 20.0049 50.4411V50.4566L26.9794 50.4812C27.0557 49.9618 27.0965 49.4377 27.1015 48.9126L27.1416 37.3635V37.2952C27.1389 37.0965 27.1389 36.9579 26.9365 36.957Z" fill="#3D6CAF"/>
</svg>
